<svg width="40" height="40" viewBox="0 0 40 40" fill="none" xmlns="http://www.w3.org/2000/svg">
<g id="contact" clip-path="url(#clip0_12_356)">
<path id="Vector" d="M35.625 0H4.375C1.9625 0 0 1.9625 0 4.375V25.625C0 28.0375 1.9625 30 4.375 30H5.625C6.66 30 7.5 29.16 7.5 28.125C7.5 27.09 6.66 26.25 5.625 26.25H4.375C4.03 26.25 3.75 25.97 3.75 25.625V4.375C3.75 4.03 4.03 3.75 4.375 3.75H35.625C35.97 3.75 36.25 4.03 36.25 4.375V25.625C36.25 25.97 35.97 26.25 35.625 26.25H23.65C23.205 26.25 22.775 26.4075 22.4375 26.695L13.75 34.0725V28.125C13.75 27.09 12.91 26.25 11.875 26.25C10.84 26.25 10 27.09 10 28.125V38.125C10 39.7275 11.88 40.5775 13.0875 39.555L24.3375 30H35.625C38.0375 30 40 28.0375 40 25.625V4.375C40 1.9625 38.0375 0 35.625 0Z" fill="white"/>
<path id="Vector_2" d="M11.25 12.5C11.25 11.81 11.81 11.25 12.5 11.25C13.19 11.25 13.75 11.81 13.75 12.5C13.75 13.535 14.59 14.375 15.625 14.375C16.66 14.375 17.5 13.535 17.5 12.5C17.5 9.7425 15.2575 7.5 12.5 7.5C9.7425 7.5 7.5 9.7425 7.5 12.5C7.5 13.535 8.34 14.375 9.375 14.375C10.41 14.375 11.25 13.535 11.25 12.5ZM26.25 12.5C26.25 11.81 26.81 11.25 27.5 11.25C28.19 11.25 28.75 11.81 28.75 12.5C28.75 13.535 29.59 14.375 30.625 14.375C31.66 14.375 32.5 13.535 32.5 12.5C32.5 9.7425 30.2575 7.5 27.5 7.5C24.7425 7.5 22.5 9.7425 22.5 12.5C22.5 13.535 23.34 14.375 24.375 14.375C25.41 14.375 26.25 13.535 26.25 12.5ZM16.25 17.5C16.25 16.465 15.41 15.625 14.375 15.625C13.34 15.625 12.5 16.465 12.5 17.5C12.5 20.35 15.725 22.5 20 22.5C24.275 22.5 27.5 20.35 27.5 17.5C27.5 16.465 26.6625 15.615 25.625 15.615C24.5875 15.615 23.75 16.445 23.75 17.48C23.6525 17.8275 22.3475 18.75 20 18.75C17.6525 18.75 16.3475 17.8275 16.25 17.5Z" fill="white"/>
</g>
<defs>
<clipPath id="clip0_12_356">
<rect width="40" height="40" fill="white"/>
</clipPath>
</defs>
</svg>
