<svg width="40" height="40" viewBox="0 0 40 40" fill="none" xmlns="http://www.w3.org/2000/svg">
<g id="back 1" clip-path="url(#clip0_72_893)">
<g id="Layer 2">
<path id="861, Arrow, Sign, U Turn, Left" d="M9.24131 40C8.6948 40.0012 8.1564 39.8494 7.67346 39.5578C7.19053 39.2662 6.77787 38.8438 6.47178 38.3278L0.133497 27.6132C0.0469802 27.4673 0.00035747 27.2955 -0.000476884 27.1194C-0.00131124 26.9433 0.0436802 26.7709 0.128809 26.6239L6.4749 15.6369C6.71669 15.2191 7.02851 14.86 7.39246 14.58C7.75641 14.3 8.16532 14.1048 8.59567 14.0055C9.02603 13.9062 9.46936 13.9048 9.90019 14.0014C10.331 14.098 10.7409 14.2907 11.1062 14.5684L11.1265 14.5835C11.8537 15.1401 12.3601 15.9999 12.5366 16.9778C12.7131 17.9557 12.5456 18.9736 12.0702 19.8121L10.0718 23.3115H26.3218C30.1265 23.3115 33.2694 19.8442 33.3265 15.5817C33.3395 14.5408 33.171 13.5074 32.8308 12.5413C32.4906 11.5753 31.9854 10.6958 31.3446 9.95411C30.7037 9.21238 29.94 8.6231 29.0978 8.22049C28.2555 7.81787 27.3515 7.60993 26.4382 7.60874H21.3218C20.8733 7.60872 20.4294 7.50568 20.0166 7.3058C19.6038 7.10591 19.2306 6.81327 18.9192 6.44534C18.6078 6.07742 18.3647 5.64175 18.2044 5.16436C18.044 4.68697 17.9697 4.17765 17.9858 3.6668C18.0468 1.64463 19.5726 0 21.3827 0H26.2944C33.8085 0 39.9569 6.89462 39.9999 15.3698C40.0084 17.407 39.664 19.4261 38.9863 21.3113C38.3086 23.1964 37.3109 24.9105 36.0506 26.3552C34.7904 27.7999 33.2922 28.9467 31.6421 29.73C29.992 30.5132 28.2225 30.9174 26.4351 30.9194H10.1069L11.9874 34.0679C12.3282 34.638 12.5263 35.3031 12.5603 35.9918C12.5943 36.6805 12.4629 37.3667 12.1804 37.9767C11.8978 38.5867 11.4748 39.0974 10.9566 39.4539C10.4385 39.8104 9.84495 39.9992 9.23975 40H9.24131ZM1.71865 27.1092L7.76553 37.3323C7.96126 37.6626 8.23848 37.9194 8.56219 38.0703C8.8859 38.2212 9.24159 38.2594 9.58432 38.18C9.92705 38.1006 10.2415 37.9073 10.4879 37.6244C10.7342 37.3415 10.9015 36.9817 10.9687 36.5905C11.0142 36.329 11.0133 36.0597 10.9663 35.7986C10.9192 35.5374 10.8267 35.2896 10.6944 35.0697L7.98272 30.5285C7.90271 30.3946 7.85625 30.2384 7.84835 30.0767C7.84044 29.915 7.87138 29.7539 7.93784 29.6107C8.0043 29.4676 8.10376 29.3478 8.22551 29.2642C8.34727 29.1807 8.4867 29.1366 8.62881 29.1367H26.4351C28.0165 29.1349 29.5821 28.7772 31.0419 28.0842C32.5018 27.3912 33.8273 26.3766 34.9424 25.0985C36.0575 23.8204 36.9402 22.3039 37.54 20.6361C38.1397 18.9683 38.4447 17.182 38.4374 15.3795C38.3991 7.88122 32.9522 1.78086 26.2944 1.78086H21.3827C20.4038 1.78086 19.5804 2.65527 19.5476 3.73002C19.5387 4.00185 19.5781 4.27291 19.6633 4.52699C19.7485 4.78108 19.8778 5.01298 20.0434 5.20882C20.209 5.40466 20.4076 5.56042 20.6272 5.66679C20.8469 5.77316 21.0831 5.82795 21.3218 5.82788H26.4351C28.1166 5.82096 29.7614 6.38796 31.1577 7.45586C32.554 8.52377 33.6379 10.0437 34.2696 11.8198C34.9014 13.5959 35.0522 15.547 34.7025 17.4216C34.3528 19.2962 33.5188 21.0087 32.3077 22.3383C30.7017 24.1093 28.5533 25.0969 26.3187 25.0915H8.63115C8.49055 25.0914 8.35256 25.0481 8.23175 24.9661C8.11095 24.8841 8.01179 24.7665 7.94476 24.6256C7.87772 24.4847 7.84528 24.3258 7.85086 24.1657C7.85644 24.0056 7.89983 23.8501 7.97647 23.7158L10.7608 18.8407C11.0134 18.3952 11.1025 17.8545 11.0088 17.3349C10.9151 16.8153 10.6463 16.3584 10.2601 16.0625L10.2397 16.0474C10.0456 15.9 9.82783 15.7979 9.59893 15.7467C9.37004 15.6956 9.13454 15.6964 8.90595 15.7493C8.67736 15.8022 8.46018 15.906 8.26689 16.0548C8.0736 16.2036 7.90799 16.3944 7.77959 16.6164L1.71865 27.1092Z" fill="white"/>
</g>
</g>
<defs>
<clipPath id="clip0_72_893">
<rect width="40" height="40" fill="white"/>
</clipPath>
</defs>
</svg>
