<svg width="40" height="40" viewBox="0 0 40 40" fill="none" xmlns="http://www.w3.org/2000/svg">
<g id="feedback 1" clip-path="url(#clip0_72_890)">
<path id="Path 3541" d="M28.6368 35.605L21.2318 29.09H7.0001C6.60307 29.0869 6.21053 29.0057 5.84489 28.851C5.47925 28.6962 5.14767 28.4709 4.86909 28.188C4.59051 27.9051 4.37039 27.5701 4.22129 27.2021C4.07219 26.8341 3.99703 26.4404 4.0001 26.0433V7.04333C3.99681 6.64608 4.07179 6.25207 4.22077 5.8838C4.36976 5.51552 4.58982 5.1802 4.8684 4.89698C5.14698 4.61376 5.47861 4.38818 5.84437 4.23314C6.21013 4.07809 6.60285 3.9966 7.0001 3.99333H33.0001C33.3974 3.9966 33.7901 4.07809 34.1558 4.23314C34.5216 4.38818 34.8532 4.61376 35.1318 4.89698C35.4104 5.1802 35.6305 5.51552 35.7794 5.8838C35.9284 6.25207 36.0034 6.64608 36.0001 7.04333V26.0433C36.0032 26.4404 35.928 26.8341 35.7789 27.2021C35.6298 27.5701 35.4097 27.9051 35.1311 28.188C34.8525 28.4709 34.521 28.6962 34.1553 28.851C33.7897 29.0057 33.3971 29.0869 33.0001 29.09H30.0768C30.1211 29.2531 30.1452 29.421 30.1484 29.59V34.895C30.1484 35.605 29.8734 35.9917 29.4584 35.9917C29.1474 35.9643 28.8561 35.8273 28.6368 35.605ZM7.0001 26.0433H22.3501L23.1951 26.7867L27.1484 30.265V29.765L26.1868 26.0467H33.0001V7.04667H7.0001V26.0433ZM13.4201 22.9983C13.0223 22.9983 12.6407 22.8403 12.3594 22.559C12.0781 22.2777 11.9201 21.8962 11.9201 21.4983C11.9201 21.3014 11.9589 21.1063 12.0343 20.9243C12.1097 20.7423 12.2202 20.577 12.3594 20.4377C12.4987 20.2984 12.6641 20.1879 12.8461 20.1125C13.0281 20.0371 13.2231 19.9983 13.4201 19.9983H26.4984C26.6954 19.9983 26.8905 20.0371 27.0725 20.1125C27.2545 20.1879 27.4198 20.2984 27.5591 20.4377C27.6984 20.577 27.8089 20.7423 27.8843 20.9243C27.9596 21.1063 27.9984 21.3014 27.9984 21.4983C27.9984 21.8962 27.8404 22.2777 27.5591 22.559C27.2778 22.8403 26.8963 22.9983 26.4984 22.9983H13.4201ZM13.4201 17.9983C13.0223 17.9983 12.6407 17.8403 12.3594 17.559C12.0781 17.2777 11.9201 16.8962 11.9201 16.4983C11.9201 16.1005 12.0781 15.719 12.3594 15.4377C12.6407 15.1564 13.0223 14.9983 13.4201 14.9983H26.4984C26.8963 14.9983 27.2778 15.1564 27.5591 15.4377C27.8404 15.719 27.9984 16.1005 27.9984 16.4983C27.9984 16.8962 27.8404 17.2777 27.5591 17.559C27.2778 17.8403 26.8963 17.9983 26.4984 17.9983H13.4201ZM13.4201 12.9983C13.0223 12.9983 12.6407 12.8403 12.3594 12.559C12.0781 12.2777 11.9201 11.8962 11.9201 11.4983C11.9201 11.1005 12.0781 10.719 12.3594 10.4377C12.6407 10.1564 13.0223 9.99833 13.4201 9.99833H26.4984C26.8963 9.99833 27.2778 10.1564 27.5591 10.4377C27.8404 10.719 27.9984 11.1005 27.9984 11.4983C27.9984 11.8962 27.8404 12.2777 27.5591 12.559C27.2778 12.8403 26.8963 12.9983 26.4984 12.9983H13.4201Z" fill="white"/>
</g>
<defs>
<clipPath id="clip0_72_890">
<rect width="40" height="40" fill="white"/>
</clipPath>
</defs>
</svg>
