<svg width="50" height="50" viewBox="0 0 50 50" fill="none" xmlns="http://www.w3.org/2000/svg">
<g id="figma 1">
<path id="Vector" d="M32.7429 19.1714H17.2572C14.8257 19.0767 12.5253 18.0441 10.8385 16.2903C9.15173 14.5365 8.20953 12.1976 8.20953 9.76429C8.20953 7.33095 9.15173 4.99212 10.8385 3.23831C12.5253 1.48449 14.8257 0.451919 17.2572 0.357147H32.7429C35.1744 0.451919 37.4747 1.48449 39.1615 3.23831C40.8483 4.99212 41.7905 7.33095 41.7905 9.76429C41.7905 12.1976 40.8483 14.5365 39.1615 16.2903C37.4747 18.0441 35.1744 19.0767 32.7429 19.1714ZM17.2572 3.92858C15.7594 4.0027 14.3474 4.64989 13.3136 5.73617C12.2797 6.82246 11.7031 8.26467 11.7031 9.76429C11.7031 11.2639 12.2797 12.7061 13.3136 13.7924C14.3474 14.8787 15.7594 15.5259 17.2572 15.6H32.7429C34.2407 15.5259 35.6526 14.8787 36.6865 13.7924C37.7203 12.7061 38.2969 11.2639 38.2969 9.76429C38.2969 8.26467 37.7203 6.82246 36.6865 5.73617C35.6526 4.64989 34.2407 4.0027 32.7429 3.92858H17.2572Z" fill="#67C4FB"/>
<path id="Vector_2" d="M24.8857 34.4H17.2571C14.7641 34.4 12.3732 33.4097 10.6103 31.6468C8.84747 29.884 7.85712 27.493 7.85712 25C7.85712 22.507 8.84747 20.116 10.6103 18.3532C12.3732 16.5904 14.7641 15.6 17.2571 15.6C17.7307 15.6 18.1849 15.7881 18.5198 16.123C18.8547 16.4579 19.0428 16.9121 19.0428 17.3857C19.0428 17.8593 18.8547 18.3135 18.5198 18.6484C18.1849 18.9833 17.7307 19.1714 17.2571 19.1714C15.7113 19.1714 14.2288 19.7855 13.1357 20.8786C12.0426 21.9717 11.4285 23.4542 11.4285 25C11.4285 26.5458 12.0426 28.0284 13.1357 29.1214C14.2288 30.2145 15.7113 30.8286 17.2571 30.8286H23.1V17.3857C23.1 16.9121 23.2881 16.4579 23.623 16.123C23.9579 15.7881 24.4121 15.6 24.8857 15.6C25.3593 15.6 25.8135 15.7881 26.1484 16.123C26.4833 16.4579 26.6714 16.9121 26.6714 17.3857V32.6143C26.6714 33.0879 26.4833 33.5421 26.1484 33.877C25.8135 34.2119 25.3593 34.4 24.8857 34.4Z" fill="#67C4FB"/>
<path id="Vector_3" d="M17.3714 49.6428C16.1052 49.6922 14.8421 49.4854 13.6577 49.0349C12.4733 48.5844 11.3921 47.8994 10.4788 47.021C9.56545 46.1426 8.83888 45.0889 8.34257 43.9229C7.84627 42.757 7.59045 41.5029 7.59045 40.2357C7.59045 38.9685 7.84627 37.7144 8.34257 36.5485C8.83888 35.3825 9.56545 34.3288 10.4788 33.4504C11.3921 32.572 12.4733 31.887 13.6577 31.4365C14.8421 30.986 16.1052 30.7792 17.3714 30.8286C17.845 30.8286 18.2992 31.0167 18.6341 31.3516C18.969 31.6865 19.1571 32.1407 19.1571 32.6143C19.1571 33.0879 18.969 33.5421 18.6341 33.877C18.2992 34.2118 17.845 34.4 17.3714 34.4C16.2152 34.3972 15.0841 34.7374 14.1214 35.3777C13.1587 36.018 12.4076 36.9296 11.9631 37.997C11.5187 39.0643 11.401 40.2396 11.6248 41.3739C11.8486 42.5083 12.404 43.5507 13.2205 44.3693C14.0371 45.1879 15.0782 45.7458 16.212 45.9724C17.3458 46.199 18.5213 46.0841 19.5898 45.6423C20.6582 45.2005 21.5716 44.4516 22.2143 43.4904C22.8569 42.5293 23.2 41.3991 23.2 40.2428V32.6143C23.2 32.1407 23.3881 31.6865 23.723 31.3516C24.0579 31.0167 24.5121 30.8286 24.9857 30.8286C25.4593 30.8286 25.9135 31.0167 26.2484 31.3516C26.5833 31.6865 26.7714 32.1407 26.7714 32.6143V40.2428C26.7676 42.7347 25.7761 45.1234 24.014 46.8855C22.252 48.6475 19.8633 49.6391 17.3714 49.6428Z" fill="#67C4FB"/>
<path id="Vector_4" d="M32.6143 34.6429C30.7297 34.6429 28.8874 34.084 27.3205 33.037C25.7535 31.99 24.5322 30.5018 23.811 28.7607C23.0898 27.0196 22.9011 25.1037 23.2688 23.2554C23.6364 21.407 24.544 19.7092 25.8766 18.3766C27.2091 17.044 28.907 16.1365 30.7553 15.7688C32.6037 15.4012 34.5196 15.5899 36.2607 16.311C38.0018 17.0322 39.49 18.2535 40.537 19.8205C41.584 21.3875 42.1428 23.2297 42.1428 25.1143C42.1428 26.3656 41.8964 27.6047 41.4175 28.7607C40.9387 29.9168 40.2368 30.9672 39.352 31.852C38.4672 32.7368 37.4168 33.4387 36.2607 33.9176C35.1046 34.3964 33.8656 34.6429 32.6143 34.6429ZM32.6143 19.1714C31.4354 19.1714 30.2831 19.5212 29.3032 20.1764C28.3232 20.8316 27.5597 21.7628 27.1092 22.8522C26.6588 23.9416 26.5416 25.1401 26.7727 26.296C27.0037 27.452 27.5725 28.5134 28.407 29.346C29.2416 30.1785 30.3044 30.7448 31.4609 30.973C32.6174 31.2012 33.8156 31.0812 34.9039 30.6282C35.9922 30.1751 36.9215 29.4093 37.5744 28.4278C38.2273 27.4463 38.5742 26.2931 38.5714 25.1143C38.5676 23.5368 37.9383 22.0253 36.8216 20.9112C35.7048 19.7971 34.1917 19.1714 32.6143 19.1714Z" fill="#67C4FB"/>
<path id="Vector_5" d="M24.8857 19.1714C24.6512 19.1696 24.4194 19.1215 24.2035 19.0301C23.9875 18.9386 23.7917 18.8055 23.6272 18.6383C23.4627 18.4712 23.3328 18.2733 23.2448 18.0559C23.1568 17.8385 23.1124 17.6059 23.1143 17.3714L23.2286 2.12858C23.2323 1.65992 23.4202 1.21152 23.7516 0.880114C24.083 0.548713 24.5314 0.360882 25 0.357147C25.2345 0.359016 25.4664 0.407057 25.6823 0.498528C25.8983 0.589999 26.0941 0.723109 26.2586 0.890256C26.423 1.0574 26.553 1.25531 26.641 1.47269C26.729 1.69006 26.7733 1.92264 26.7715 2.15715L26.6572 17.4C26.6498 17.8675 26.4608 18.3138 26.1302 18.6444C25.7996 18.9751 25.3533 19.1641 24.8857 19.1714Z" fill="#67C4FB"/>
</g>
</svg>
