<svg width="50" height="50" viewBox="0 0 50 50" fill="none" xmlns="http://www.w3.org/2000/svg">
<g id="github 1">
<path id="Vector" d="M20.9798 42.7144C20.9797 42.4089 20.9125 42.1071 20.7828 41.8304C20.6532 41.5538 20.4642 41.309 20.2294 41.1135C19.9946 40.918 19.7197 40.7766 19.4241 40.6992C19.1285 40.6218 18.8196 40.6103 18.5191 40.6657C15.7918 41.1662 12.3484 41.2414 11.4329 38.6698C10.6346 36.6782 9.3122 34.9397 7.60598 33.6386C7.48425 33.5723 7.36822 33.4961 7.25911 33.4107C7.10978 33.0168 6.84455 32.6774 6.49841 32.4373C6.15226 32.1972 5.74147 32.0677 5.32021 32.0659H5.31005C4.75921 32.0657 4.23073 32.2837 3.84028 32.6723C3.44983 33.0608 3.22921 33.5882 3.22671 34.139C3.21857 35.8379 4.9163 36.9263 5.60505 37.2946C6.41722 38.1106 7.06995 39.0711 7.52969 40.1266C8.28857 42.2588 10.494 45.4936 16.8335 45.0766C16.8356 45.1498 16.8375 45.219 16.8386 45.2821L16.8477 45.8395C16.8477 46.3921 17.0672 46.922 17.4579 47.3127C17.8486 47.7034 18.3785 47.9229 18.931 47.9229C19.4836 47.9229 20.0135 47.7034 20.4042 47.3127C20.7949 46.922 21.0144 46.3921 21.0144 45.8395L21.0042 45.1763C20.994 44.7815 20.9798 44.2098 20.9798 42.7144ZM43.2027 11.2019C43.2688 10.9415 43.334 10.6526 43.3909 10.3271C43.7279 8.00538 43.4341 5.6358 42.5405 3.46665C42.4277 3.18387 42.2545 2.92917 42.0329 2.72041C41.8113 2.51165 41.5467 2.35389 41.2577 2.25817C40.5161 2.00792 37.7777 1.51557 32.5409 4.86234C28.1879 3.83795 23.6564 3.83795 19.3034 4.86234C14.0879 1.56459 11.3637 2.01209 10.6293 2.24809C10.3331 2.33993 10.0613 2.49686 9.83373 2.70738C9.60614 2.9179 9.42854 3.17668 9.31394 3.46476C8.40207 5.67555 8.11153 8.09346 8.47369 10.4573C8.52457 10.7239 8.57948 10.97 8.63646 11.1959C6.91057 13.4947 5.99128 16.2987 6.02111 19.1732C6.01549 19.8145 6.04503 20.4556 6.10961 21.0937C6.80544 30.6823 13.0554 33.5612 17.4103 34.55C17.3197 34.8104 17.2373 35.0891 17.1641 35.3841C17.0335 35.9201 17.1209 36.4861 17.407 36.9578C17.6931 37.4295 18.1546 37.7685 18.6903 37.9005C19.226 38.0325 19.7921 37.9466 20.2646 37.6618C20.7371 37.3769 21.0773 36.9163 21.2107 36.381C21.3433 35.6869 21.683 35.0492 22.1853 34.552C22.4889 34.2861 22.7088 33.9378 22.8181 33.5493C22.9274 33.1608 22.9214 32.7489 22.8009 32.3637C22.6804 31.9785 22.4506 31.6366 22.1394 31.3797C21.8282 31.1227 21.449 30.9617 21.048 30.9163C13.8519 30.0944 10.7279 27.1627 10.258 20.7113C10.2059 20.2003 10.1825 19.6868 10.1878 19.1732C10.1544 17.1245 10.8312 15.1275 12.1033 13.5213C12.2311 13.3539 12.3672 13.1929 12.5112 13.0391C12.7662 12.7537 12.9377 12.4036 13.0068 12.0271C13.0759 11.6506 13.0399 11.2623 12.9028 10.9049C12.7623 10.529 12.6541 10.1417 12.5794 9.7473C12.4096 8.62588 12.4653 7.48186 12.7431 6.38222C14.5538 6.89362 16.2579 7.72605 17.7744 8.83988C18.0251 9.00691 18.3089 9.11807 18.6064 9.16581C18.9039 9.21355 19.2082 9.19677 19.4986 9.11659C23.7093 7.97388 28.1484 7.9746 32.3587 9.11867C32.6507 9.19876 32.9566 9.21459 33.2553 9.16507C33.5541 9.11554 33.8385 9.00185 34.089 8.83182C35.5984 7.71336 37.2954 6.87348 39.1 6.35176C39.3766 7.425 39.4385 8.54229 39.2821 9.63951C39.2067 10.0719 39.0888 10.4958 38.9301 10.905C38.7931 11.2624 38.7571 11.6506 38.8262 12.0271C38.8953 12.4036 39.0668 12.7538 39.3218 13.0392C39.4825 13.2202 39.6433 13.4155 39.7877 13.5987C41.0508 15.1776 41.7162 17.1517 41.6666 19.1732C41.6704 19.714 41.6443 20.2546 41.5883 20.7926C41.1295 27.1586 37.9934 30.0923 30.7637 30.9163C30.3626 30.962 29.9834 31.1232 29.6722 31.3804C29.361 31.6377 29.1313 31.9797 29.0109 32.3651C28.8905 32.7505 28.8847 33.1625 28.9942 33.5511C29.1036 33.9397 29.3237 34.2881 29.6275 34.554C30.1454 35.0645 30.486 35.7277 30.5989 36.4461C30.7397 37.0038 30.8044 37.578 30.7912 38.153V43.0156C30.7708 44.3644 30.7708 45.3755 30.7708 45.8394C30.7708 46.3919 30.9903 46.9218 31.381 47.3125C31.7717 47.7032 32.3016 47.9227 32.8542 47.9227C33.4067 47.9227 33.9366 47.7032 34.3273 47.3125C34.718 46.9218 34.9375 46.3919 34.9375 45.8394C34.9375 45.3877 34.9375 44.3969 34.9578 43.0481V38.153C34.9746 37.2319 34.8661 36.3127 34.6354 35.4207C34.5694 35.1279 34.4886 34.8386 34.3933 34.554C37.5625 34.0275 40.4422 32.3935 42.5195 29.9428C44.5969 27.4921 45.7373 24.3838 45.7376 21.171C45.8063 20.5074 45.8382 19.8404 45.8333 19.1732C45.8796 16.2956 44.9526 13.4867 43.2027 11.2019Z" fill="#67C4FB"/>
</g>
</svg>
