<svg width="40" height="40" viewBox="0 0 40 40" fill="none" xmlns="http://www.w3.org/2000/svg">
<g id="home 1" clip-path="url(#clip0_12_367)">
<path id="Vector" d="M38.2609 21.3044C37.8261 21.3044 37.3913 21.1304 37.0435 20.8261L20 4.17392L2.95656 20.8261C2.26091 21.4783 1.17396 21.4783 0.478303 20.7826C-0.17387 20.087 -0.17387 19 0.521782 18.3044L18.7827 0.478266C19.4783 -0.173908 20.5218 -0.173908 21.2174 0.478266L39.4783 18.3044C40.174 18.9565 40.174 20.087 39.5218 20.7826C39.174 21.1304 38.6957 21.3044 38.2609 21.3044ZM34.4348 38.2609V21.2609C34.4348 20.3044 33.6522 19.5217 32.6957 19.5217C31.7392 19.5217 30.9566 20.3044 30.9566 21.2609V36.5217H25.5218V27.2174C25.5218 25.9565 24.4783 24.9131 23.2174 24.9131H16.7826C15.5218 24.9131 14.4783 25.9565 14.4783 27.2174V36.5217H9.04352V21.2609C9.04352 20.3044 8.26091 19.5217 7.30439 19.5217C6.34787 19.5217 5.56526 20.3044 5.56526 21.2609V38.2609C5.56526 39.2174 6.34787 40 7.30439 40H16.2174C17.174 40 17.9566 39.2174 17.9566 38.2609V28.3913H22.087V38.2609C22.087 39.2174 22.8696 40 23.8261 40H32.7392C33.6957 40 34.4348 39.2174 34.4348 38.2609Z" fill="white"/>
</g>
<defs>
<clipPath id="clip0_12_367">
<rect width="40" height="40" fill="white"/>
</clipPath>
</defs>
</svg>
