<svg width="50" height="50" viewBox="0 0 50 50" fill="none" xmlns="http://www.w3.org/2000/svg">
<g id="instagram 1" clip-path="url(#clip0_12_54)">
<path id="Vector" d="M49.85 14.6944C49.8088 12.6202 49.4162 10.568 48.6889 8.625C48.0603 6.95673 47.0754 5.44567 45.8028 4.19722C44.5543 2.92459 43.0433 1.93965 41.375 1.31111C39.4329 0.58406 37.3816 0.191462 35.3083 0.15C32.6389 0.0277778 31.7889 0 25 0C18.2111 0 17.3611 0.0277778 14.6944 0.15C12.6202 0.191149 10.568 0.583752 8.625 1.31111C6.95573 1.9393 5.44369 2.92426 4.19444 4.19722C2.92182 5.44567 1.93688 6.95673 1.30833 8.625C0.581282 10.5671 0.188684 12.6184 0.147222 14.6917C0.0277777 17.3611 0 18.2111 0 25C0 31.7889 0.0277778 32.6389 0.15 35.3056C0.191149 37.3798 0.583752 39.432 1.31111 41.375C1.93965 43.0433 2.92459 44.5543 4.19722 45.8028C5.44561 47.0755 6.95669 48.0604 8.625 48.6889C10.5671 49.4159 12.6184 49.8085 14.6917 49.85C17.3611 49.9722 18.2111 50 25 50C31.7889 50 32.6389 49.9722 35.3056 49.85C37.3798 49.8088 39.432 49.4162 41.375 48.6889C43.0364 48.0466 44.5452 47.0642 45.8047 45.8047C47.0642 44.5452 48.0466 43.0364 48.6889 41.375C49.4159 39.4329 49.8085 37.3816 49.85 35.3083C49.9722 32.6389 50 31.7889 50 25C50 18.2111 49.9722 17.3611 49.85 14.6944ZM45.35 35.1028C45.3308 36.687 45.0396 38.2561 44.4889 39.7417C44.0734 40.8204 43.4365 41.8001 42.6194 42.6177C41.8022 43.4353 40.8229 44.0727 39.7444 44.4889C38.258 45.0398 36.6879 45.3311 35.1028 45.35C32.4639 45.4694 31.675 45.4944 25 45.4944C18.325 45.4944 17.5333 45.4694 14.8972 45.35C13.313 45.3308 11.7439 45.0395 10.2583 44.4889C9.17134 44.0888 8.18794 43.45 7.38056 42.6194C6.55039 41.8129 5.91158 40.8304 5.51111 39.7444C4.96013 38.258 4.66885 36.6879 4.65 35.1028C4.53056 32.4639 4.50556 31.675 4.50556 25C4.50556 18.325 4.53056 17.5333 4.65 14.8972C4.66922 13.313 4.9605 11.7439 5.51111 10.2583C5.91121 9.17134 6.55004 8.18794 7.38056 7.38056C8.18714 6.55039 9.16956 5.91158 10.2556 5.51111C11.742 4.96018 13.3121 4.6689 14.8972 4.65C17.5361 4.53056 18.325 4.50556 25 4.50556C31.675 4.50556 32.4667 4.53056 35.1028 4.65C36.687 4.66922 38.2561 4.9605 39.7417 5.51111C40.8287 5.91121 41.8121 6.55004 42.6194 7.38056C43.4496 8.18714 44.0884 9.16956 44.4889 10.2556C45.0398 11.742 45.3311 13.3121 45.35 14.8972C45.4694 17.5361 45.4944 18.325 45.4944 25C45.4944 31.675 45.4694 32.4667 45.35 35.1028ZM25 12.1611C22.4607 12.1611 19.9784 12.9141 17.8671 14.3249C15.7557 15.7356 14.1102 17.7408 13.1384 20.0868C12.1667 22.4328 11.9124 25.0142 12.4078 27.5047C12.9032 29.9952 14.126 32.2829 15.9215 34.0785C17.7171 35.874 20.0048 37.0968 22.4953 37.5922C24.9858 38.0876 27.5672 37.8333 29.9132 36.8616C32.2592 35.8898 34.2644 34.2442 35.6751 32.1329C37.0859 30.0216 37.8389 27.5393 37.8389 25C37.8389 21.5949 36.4862 18.3293 34.0785 15.9215C31.6707 13.5138 28.4051 12.1611 25 12.1611ZM25 33.3333C23.3518 33.3333 21.7407 32.8446 20.3702 31.9289C18.9998 31.0132 17.9317 29.7117 17.301 28.189C16.6703 26.6663 16.5052 24.9908 16.8268 23.3742C17.1483 21.7577 17.942 20.2729 19.1074 19.1074C20.2729 17.942 21.7577 17.1483 23.3742 16.8268C24.9908 16.5052 26.6663 16.6703 28.189 17.301C29.7117 17.9317 31.0132 18.9998 31.9289 20.3702C32.8446 21.7407 33.3333 23.3518 33.3333 25C33.3333 27.2101 32.4554 29.3298 30.8926 30.8926C29.3298 32.4554 27.2101 33.3333 25 33.3333ZM41.3444 11.6556C41.3444 12.2489 41.1685 12.8289 40.8389 13.3223C40.5092 13.8156 40.0407 14.2001 39.4925 14.4272C38.9443 14.6543 38.3411 14.7137 37.7592 14.5979C37.1772 14.4822 36.6427 14.1964 36.2231 13.7769C35.8036 13.3573 35.5178 12.8228 35.4021 12.2408C35.2863 11.6589 35.3457 11.0557 35.5728 10.5075C35.7999 9.95933 36.1844 9.49079 36.6777 9.16115C37.1711 8.8315 37.7511 8.65556 38.3444 8.65556C39.1401 8.65556 39.9032 8.97163 40.4658 9.53424C41.0284 10.0968 41.3444 10.8599 41.3444 11.6556Z" fill="#67C4FB"/>
</g>
<defs>
<clipPath id="clip0_12_54">
<rect width="50" height="50" fill="white"/>
</clipPath>
</defs>
</svg>
