<svg width="30" height="30" viewBox="0 0 30 30" fill="none" xmlns="http://www.w3.org/2000/svg">
<g id="medal 2">
<path id="Vector" d="M17.55 0.356247L14.8144 1.86187L12.0019 0.511872L10.515 3.25687L7.41749 3.6375L7.65562 6.75L5.25562 8.74687L7.14374 11.2387L6.20249 14.2162L9.13124 15.2925L9.95249 18.3075L11.2556 18.0131V29.6456L15.0056 24.6469L18.7556 29.6456V17.7056L20.5931 18.0056L20.7806 17.1356L21.2419 14.9569L24.1106 13.7194L23.0044 10.7944L24.7425 8.20687L22.2337 6.34687L22.3012 3.22312L19.1831 3.01687L17.55 0.356247ZM16.89 2.86312L18.09 4.8225L20.3869 4.97625L20.34 7.27312L22.1887 8.64187L20.9025 10.5544L21.72 12.7031L19.6069 13.62L19.1269 15.8644L16.86 15.495L15.2419 17.1262L13.5356 15.585L11.2894 16.0837L10.6875 13.8656L8.53124 13.0744L9.22312 10.8806L7.83561 9.045L9.60374 7.57312L9.42749 5.28L11.715 4.99875L12.8044 2.9775L14.8781 3.97312L16.89 2.86312ZM15.0037 5.27062C13.7618 5.27458 12.5718 5.76971 11.6935 6.64793C10.8153 7.52615 10.3202 8.71614 10.3162 9.95812C10.3162 12.5344 12.4256 14.6456 15.0037 14.6456C17.5819 14.6456 19.6912 12.5344 19.6912 9.95812C19.6912 7.38 17.5819 5.27062 15.0037 5.27062ZM15.0037 7.14562C16.5675 7.14562 17.8162 8.3925 17.8162 9.95812C17.8162 11.5219 16.5675 12.7706 15.0037 12.7706C13.44 12.7706 12.1912 11.5219 12.1912 9.95812C12.1912 8.3925 13.44 7.14562 15.0037 7.14562ZM13.1287 17.7469L15.315 19.7212L16.8787 18.1387V24.0169L15.0037 21.5194L13.1287 24.0206V17.7469Z" fill="white"/>
</g>
</svg>
