<svg width="50" height="50" viewBox="0 0 50 50" fill="none" xmlns="http://www.w3.org/2000/svg">
<g id="netlify 1" clip-path="url(#clip0_12_56)">
<path id="Vector" d="M25 50C24.6 50 24.2 49.8479 23.8959 49.5417L0.458362 26.1042C-0.152055 25.4937 -0.152055 24.5042 0.458362 23.8937L23.8959 0.458331C24.5063 -0.152085 25.4959 -0.152085 26.1063 0.458331L49.5438 23.8958C50.1542 24.5063 50.1542 25.4958 49.5438 26.1063L26.1042 49.5417C25.8 49.8479 25.4 50 25 50ZM3.77295 25L25 46.2271L46.2271 25L25 3.77291L3.77295 25Z" fill="#67C4FB"/>
<path id="Vector_2" d="M10.7312 35.7333C10.4333 35.7333 10.1333 35.6479 9.86872 35.4708C9.14789 34.9937 8.95622 34.025 9.4333 33.3063L28.1625 5.16042C28.6396 4.43958 29.6104 4.24583 30.3271 4.725C31.0479 5.20208 31.2396 6.17083 30.7625 6.88958L12.0333 35.0354C11.7333 35.4896 11.2396 35.7333 10.7312 35.7333Z" fill="#67C4FB"/>
<path id="Vector_3" d="M48.4375 26.5625C48.2354 26.5625 48.0333 26.5229 47.8354 26.4417L14.7646 12.6375C13.9687 12.3042 13.5937 11.3896 13.925 10.5937C14.2562 9.79791 15.1729 9.42291 15.9687 9.75416L49.0396 23.5583C49.8354 23.8917 50.2104 24.8062 49.8792 25.6021C49.6292 26.2021 49.0479 26.5625 48.4375 26.5625Z" fill="#67C4FB"/>
<path id="Vector_4" d="M30.35 44.6521C30.2729 44.6521 30.1959 44.6458 30.1167 44.6354C29.2646 44.5063 28.6771 43.7125 28.8021 42.8563L33.5125 11.3875C33.6417 10.5333 34.4292 9.96251 35.2917 10.0729C36.1438 10.2021 36.7313 10.9958 36.6063 11.8521L31.8959 43.3208C31.7792 44.0958 31.1125 44.6521 30.35 44.6521Z" fill="#67C4FB"/>
<path id="Vector_5" d="M40.1061 34.8958C39.9957 34.8958 39.8853 34.8833 39.7749 34.8604L1.23323 26.5271C0.389481 26.3437 -0.145936 25.5125 0.0353144 24.6687C0.218648 23.825 1.06031 23.3021 1.89365 23.4708L40.4353 31.8042C41.2791 31.9875 41.8145 32.8187 41.6332 33.6625C41.4728 34.3958 40.827 34.8958 40.1061 34.8958Z" fill="#67C4FB"/>
<path id="Vector_6" d="M7.73123 32.8208C7.14373 32.8208 6.57914 32.4896 6.31456 31.9208C5.94789 31.1396 6.28331 30.2104 7.06456 29.8437L39.0416 14.8542C39.8208 14.4812 40.7521 14.8229 41.1187 15.6042C41.4854 16.3854 41.15 17.3146 40.3687 17.6813L8.39164 32.6729C8.17914 32.7729 7.95206 32.8208 7.73123 32.8208Z" fill="#67C4FB"/>
<path id="Vector_7" d="M26.8167 48.1854C26.2979 48.1854 25.7937 47.9292 25.4937 47.4583L7.30208 18.7771C6.83958 18.0479 7.05625 17.0833 7.78542 16.6208C8.51458 16.1625 9.47917 16.375 9.94167 17.1042L28.1333 45.7875C28.5958 46.5167 28.3792 47.4792 27.65 47.9438C27.3917 48.1063 27.1021 48.1854 26.8167 48.1854Z" fill="#67C4FB"/>
</g>
<defs>
<clipPath id="clip0_12_56">
<rect width="50" height="50" fill="white"/>
</clipPath>
</defs>
</svg>
