<svg width="50" height="50" viewBox="0 0 50 50" fill="none" xmlns="http://www.w3.org/2000/svg">
<g id="phone 1">
<g id="Layer 2">
<g id="phone-call">
<path id="Vector" d="M27.0833 16.6667C28.7409 16.6667 30.3306 17.3251 31.5028 18.4972C32.6749 19.6694 33.3333 21.2591 33.3333 22.9167C33.3333 23.4692 33.5528 23.9991 33.9435 24.3898C34.3342 24.7805 34.8641 25 35.4167 25C35.9692 25 36.4991 24.7805 36.8898 24.3898C37.2805 23.9991 37.5 23.4692 37.5 22.9167C37.5 20.154 36.4025 17.5045 34.449 15.551C32.4955 13.5975 29.846 12.5 27.0833 12.5C26.5308 12.5 26.0009 12.7195 25.6102 13.1102C25.2195 13.5009 25 14.0308 25 14.5833C25 15.1359 25.2195 15.6658 25.6102 16.0565C26.0009 16.4472 26.5308 16.6667 27.0833 16.6667Z" fill="#67C4FB"/>
<path id="Vector_2" d="M27.0833 8.33332C30.9511 8.33332 34.6604 9.86978 37.3953 12.6047C40.1302 15.3396 41.6667 19.0489 41.6667 22.9167C41.6667 23.4692 41.8862 23.9991 42.2769 24.3898C42.6676 24.7805 43.1975 25 43.75 25C44.3025 25 44.8324 24.7805 45.2231 24.3898C45.6138 23.9991 45.8333 23.4692 45.8333 22.9167C45.8333 17.9438 43.8579 13.1747 40.3416 9.6584C36.8253 6.1421 32.0561 4.16666 27.0833 4.16666C26.5308 4.16666 26.0009 4.38615 25.6102 4.77685C25.2195 5.16755 25 5.69746 25 6.24999C25 6.80252 25.2195 7.33243 25.6102 7.72313C26.0009 8.11383 26.5308 8.33332 27.0833 8.33332ZM45.3125 33.1458C45.1979 32.8114 45.0001 32.5116 44.7377 32.2747C44.4753 32.0378 44.1569 31.8716 43.8125 31.7917L31.3125 28.9375C30.9732 28.8606 30.62 28.8698 30.2852 28.9644C29.9504 29.0591 29.6447 29.236 29.3958 29.4792C29.1042 29.75 29.0833 29.7708 27.7292 32.3542C23.2358 30.2837 19.6354 26.6684 17.5833 22.1667C20.2292 20.8333 20.25 20.8333 20.5208 20.5208C20.764 20.272 20.9409 19.9662 21.0355 19.6314C21.1302 19.2966 21.1394 18.9435 21.0625 18.6042L18.2083 6.24999C18.1284 5.90561 17.9622 5.58722 17.7253 5.32481C17.4884 5.06239 17.1886 4.86458 16.8542 4.74999C16.3676 4.57622 15.8652 4.45062 15.3542 4.37499C14.8276 4.2529 14.2903 4.18311 13.75 4.16666C11.2083 4.16666 8.77077 5.17633 6.97355 6.97355C5.17633 8.77077 4.16666 11.2083 4.16666 13.75C4.17768 22.2556 7.56142 30.4097 13.5758 36.4242C19.5902 42.4386 27.7443 45.8223 36.25 45.8333C37.5085 45.8333 38.7547 45.5854 39.9174 45.1038C41.0801 44.6222 42.1365 43.9163 43.0264 43.0264C43.9163 42.1365 44.6222 41.0801 45.1038 39.9174C45.5854 38.7547 45.8333 37.5085 45.8333 36.25C45.834 35.7197 45.7922 35.1903 45.7083 34.6667C45.6208 34.1492 45.4883 33.6403 45.3125 33.1458ZM36.25 41.6667C28.8477 41.6611 21.7502 38.7182 16.516 33.484C11.2818 28.2498 8.33884 21.1523 8.33332 13.75C8.33881 12.3151 8.91126 10.9405 9.92589 9.92589C10.9405 8.91126 12.3151 8.33881 13.75 8.33332H14.4375L16.6667 18L15.5417 18.5833C13.75 19.5208 12.3333 20.2708 13.0833 21.8958C14.3046 25.3533 16.2808 28.4953 18.8682 31.0935C21.4556 33.6917 24.5893 35.681 28.0417 36.9167C29.7917 37.625 30.4792 36.3125 31.4167 34.5L32.0208 33.3542L41.6667 35.5625V36.25C41.6612 37.6849 41.0887 39.0595 40.0741 40.0741C39.0595 41.0887 37.6849 41.6612 36.25 41.6667Z" fill="#67C4FB"/>
</g>
</g>
</g>
</svg>
