<svg width="40" height="40" viewBox="0 0 40 40" fill="none" xmlns="http://www.w3.org/2000/svg">
<g id="coding">
<path id="Vector" d="M35 1.25H5C4.00544 1.25 3.05161 1.64509 2.34835 2.34835C1.64509 3.05161 1.25 4.00544 1.25 5V35C1.25 35.9946 1.64509 36.9484 2.34835 37.6517C3.05161 38.3549 4.00544 38.75 5 38.75H35C35.9946 38.75 36.9484 38.3549 37.6517 37.6517C38.3549 36.9484 38.75 35.9946 38.75 35V5C38.75 4.00544 38.3549 3.05161 37.6517 2.34835C36.9484 1.64509 35.9946 1.25 35 1.25ZM5 3.75H35C35.3315 3.75 35.6495 3.8817 35.8839 4.11612C36.1183 4.35054 36.25 4.66848 36.25 5V8.75H3.75V5C3.75 4.66848 3.8817 4.35054 4.11612 4.11612C4.35054 3.8817 4.66848 3.75 5 3.75ZM35 36.25H5C4.66848 36.25 4.35054 36.1183 4.11612 35.8839C3.8817 35.6495 3.75 35.3315 3.75 35V11.25H36.25V35C36.25 35.3315 36.1183 35.6495 35.8839 35.8839C35.6495 36.1183 35.3315 36.25 35 36.25Z" fill="white"/>
<path id="Vector_2" d="M31.875 7.5H32.5C32.8315 7.5 33.1494 7.3683 33.3839 7.13388C33.6183 6.89946 33.75 6.58152 33.75 6.25C33.75 5.91848 33.6183 5.60054 33.3839 5.36612C33.1494 5.1317 32.8315 5 32.5 5H31.875C31.5435 5 31.2255 5.1317 30.9911 5.36612C30.7567 5.60054 30.625 5.91848 30.625 6.25C30.625 6.58152 30.7567 6.89946 30.9911 7.13388C31.2255 7.3683 31.5435 7.5 31.875 7.5ZM26.875 7.5H27.5C27.8315 7.5 28.1494 7.3683 28.3839 7.13388C28.6183 6.89946 28.75 6.58152 28.75 6.25C28.75 5.91848 28.6183 5.60054 28.3839 5.36612C28.1494 5.1317 27.8315 5 27.5 5H26.875C26.5435 5 26.2255 5.1317 25.9911 5.36612C25.7567 5.60054 25.625 5.91848 25.625 6.25C25.625 6.58152 25.7567 6.89946 25.9911 7.13388C26.2255 7.3683 26.5435 7.5 26.875 7.5ZM13.3875 17.8625C13.2713 17.7453 13.133 17.6523 12.9807 17.5889C12.8284 17.5254 12.665 17.4928 12.5 17.4928C12.335 17.4928 12.1716 17.5254 12.0193 17.5889C11.8669 17.6523 11.7287 17.7453 11.6125 17.8625L6.61248 22.8625C6.49532 22.9787 6.40233 23.117 6.33887 23.2693C6.27541 23.4216 6.24274 23.585 6.24274 23.75C6.24274 23.915 6.27541 24.0784 6.33887 24.2307C6.40233 24.383 6.49532 24.5213 6.61248 24.6375L11.6125 29.6375C11.7287 29.7547 11.8669 29.8477 12.0193 29.9111C12.1716 29.9746 12.335 30.0072 12.5 30.0072C12.665 30.0072 12.8284 29.9746 12.9807 29.9111C13.133 29.8477 13.2713 29.7547 13.3875 29.6375C13.5046 29.5213 13.5976 29.383 13.6611 29.2307C13.7246 29.0784 13.7572 28.915 13.7572 28.75C13.7572 28.585 13.7246 28.4216 13.6611 28.2693C13.5976 28.117 13.5046 27.9787 13.3875 27.8625L9.26248 23.75L13.3875 19.6375C13.5046 19.5213 13.5976 19.383 13.6611 19.2307C13.7246 19.0784 13.7572 18.915 13.7572 18.75C13.7572 18.585 13.7246 18.4216 13.6611 18.2693C13.5976 18.117 13.5046 17.9787 13.3875 17.8625ZM28.3875 17.8625C28.1521 17.6271 27.8329 17.4949 27.5 17.4949C27.1671 17.4949 26.8479 17.6271 26.6125 17.8625C26.3771 18.0979 26.2449 18.4171 26.2449 18.75C26.2449 19.0829 26.3771 19.4021 26.6125 19.6375L30.7375 23.75L26.6125 27.8625C26.4953 27.9787 26.4023 28.117 26.3389 28.2693C26.2754 28.4216 26.2427 28.585 26.2427 28.75C26.2427 28.915 26.2754 29.0784 26.3389 29.2307C26.4023 29.383 26.4953 29.5213 26.6125 29.6375C26.7287 29.7547 26.8669 29.8477 27.0193 29.9111C27.1716 29.9746 27.335 30.0072 27.5 30.0072C27.665 30.0072 27.8284 29.9746 27.9807 29.9111C28.133 29.8477 28.2713 29.7547 28.3875 29.6375L33.3875 24.6375C33.5046 24.5213 33.5976 24.383 33.6611 24.2307C33.7246 24.0784 33.7572 23.915 33.7572 23.75C33.7572 23.585 33.7246 23.4216 33.6611 23.2693C33.5976 23.117 33.5046 22.9787 33.3875 22.8625L28.3875 17.8625ZM22.9 15.0625C22.7441 15.0096 22.5792 14.9879 22.4149 14.9989C22.2506 15.0098 22.0901 15.0532 21.9426 15.1263C21.7951 15.1995 21.6635 15.3011 21.5553 15.4253C21.4472 15.5495 21.3647 15.6938 21.3125 15.85L16.3125 30.85C16.2497 31.0096 16.2204 31.1804 16.2264 31.3517C16.2324 31.5231 16.2737 31.6914 16.3475 31.8462C16.4214 32.001 16.5263 32.1389 16.6558 32.2513C16.7852 32.3638 16.9364 32.4485 17.1 32.5C17.2328 32.5171 17.3672 32.5171 17.5 32.5C17.762 32.5007 18.0177 32.419 18.2308 32.2664C18.4439 32.1139 18.6036 31.8983 18.6875 31.65L23.6875 16.65C23.7404 16.4941 23.762 16.3292 23.7511 16.1649C23.7401 16.0006 23.6968 15.8401 23.6237 15.6926C23.5505 15.5451 23.4489 15.4135 23.3247 15.3053C23.2005 15.1972 23.0562 15.1147 22.9 15.0625Z" fill="white"/>
</g>
</svg>
