<svg width="40" height="40" viewBox="0 0 40 40" fill="none" xmlns="http://www.w3.org/2000/svg">
<g id="checklist 1" clip-path="url(#clip0_12_364)">
<path id="Vector" d="M5.06667 40H34.9467C36.2881 39.9965 37.5734 39.4611 38.5207 38.5113C39.468 37.5615 40 36.2748 40 34.9333V5.06667C39.9965 3.72399 39.4615 2.4373 38.5121 1.48788C37.5627 0.538458 36.276 0.0035195 34.9333 0H5.06667C3.72399 0.0035195 2.4373 0.538458 1.48788 1.48788C0.538458 2.4373 0.0035195 3.72399 0 5.06667V34.9333C0.0035195 36.276 0.538458 37.5627 1.48788 38.5121C2.4373 39.4615 3.72399 39.9965 5.06667 40ZM3.37333 5.06667C3.37333 4.61757 3.55174 4.18686 3.8693 3.8693C4.18686 3.55174 4.61757 3.37333 5.06667 3.37333H34.9333C35.3824 3.37333 35.8131 3.55174 36.1307 3.8693C36.4483 4.18686 36.6267 4.61757 36.6267 5.06667V34.9333C36.6267 35.3824 36.4483 35.8131 36.1307 36.1307C35.8131 36.4483 35.3824 36.6267 34.9333 36.6267H5.06667C4.61757 36.6267 4.18686 36.4483 3.8693 36.1307C3.55174 35.8131 3.37333 35.3824 3.37333 34.9333V5.06667Z" fill="white"/>
<path id="Vector_2" d="M21.6452 27.6174H28.8332C29.1518 27.5875 29.4483 27.4328 29.6643 27.1837C29.8802 26.9347 30 26.6093 30 26.2718C30 25.9342 29.8802 25.6089 29.6643 25.3599C29.4483 25.1108 29.1518 24.9561 28.8332 24.9262H21.6452C21.4682 24.9096 21.2898 24.932 21.1215 24.9921C20.9531 25.0521 20.7985 25.1485 20.6674 25.2751C20.5363 25.4017 20.4316 25.5556 20.3599 25.7272C20.2883 25.8988 20.2513 26.0843 20.2513 26.2718C20.2513 26.4593 20.2883 26.6447 20.3599 26.8163C20.4316 26.9879 20.5363 27.1419 20.6674 27.2685C20.7985 27.395 20.9531 27.4914 21.1215 27.5515C21.2898 27.6116 21.4682 27.634 21.6452 27.6174ZM12.2796 16.0441C12.3989 16.1695 12.5404 16.2687 12.6961 16.3363C12.8518 16.4038 13.0186 16.4383 13.1869 16.4377C13.3539 16.4392 13.5194 16.4052 13.6736 16.3375C13.8278 16.2699 13.9674 16.1701 14.0841 16.0441L18.5905 11.2893C18.7083 11.1643 18.8017 11.016 18.8652 10.8529C18.9287 10.6899 18.9611 10.5152 18.9607 10.3389C18.9602 10.1625 18.9268 9.98805 18.8625 9.82534C18.7981 9.66264 18.704 9.51491 18.5855 9.39059C18.467 9.26626 18.3264 9.16778 18.1719 9.10077C18.0173 9.03375 17.8518 8.99951 17.6847 9.00001C17.5176 9.0005 17.3522 9.03572 17.198 9.10364C17.0438 9.17157 16.9038 9.27088 16.7859 9.3959L13.1869 13.1827L11.1706 11.0553C10.9312 10.8071 10.609 10.6681 10.2734 10.6681C9.93777 10.6681 9.61557 10.8071 9.37615 11.0553C9.25697 11.1799 9.16236 11.3282 9.0978 11.4916C9.03324 11.655 9 11.8303 9 12.0073C9 12.1844 9.03324 12.3596 9.0978 12.5231C9.16236 12.6865 9.25697 12.8347 9.37615 12.9594L12.2796 16.0441ZM13.9632 21.5542C13.0779 21.5563 12.2131 21.8354 11.4781 22.3561C10.7431 22.8768 10.171 23.6158 9.83401 24.4796C9.49706 25.3434 9.41045 26.2932 9.58512 27.2089C9.75979 28.1247 10.1879 28.9652 10.8153 29.6242C11.4427 30.2832 12.2412 30.7311 13.1099 30.9113C13.9786 31.0915 14.8784 30.9958 15.6955 30.6364C16.5126 30.277 17.2104 29.67 17.7006 28.8922C18.1908 28.1143 18.4514 27.2006 18.4494 26.2665C18.4494 25.6458 18.3332 25.0313 18.1075 24.4582C17.8818 23.8851 17.551 23.3647 17.1342 22.9268C16.7173 22.489 16.2226 22.1423 15.6784 21.9068C15.1343 21.6712 14.5513 21.5514 13.9632 21.5542ZM13.9632 28.2982C13.5823 28.2982 13.21 28.179 12.8934 27.9558C12.5767 27.7325 12.3299 27.4152 12.1842 27.044C12.0385 26.6727 12.0003 26.2642 12.0746 25.8701C12.1489 25.476 12.3323 25.114 12.6016 24.8298C12.8709 24.5457 13.214 24.3522 13.5875 24.2738C13.961 24.1954 14.3482 24.2356 14.7 24.3894C15.0519 24.5432 15.3526 24.8036 15.5642 25.1377C15.7758 25.4718 15.8887 25.8646 15.8887 26.2665C15.8861 26.8044 15.6823 27.3196 15.3218 27.7C14.9613 28.0804 14.473 28.2954 13.9632 28.2982ZM21.6452 14.0656H28.8332C29.1518 14.0357 29.4483 13.881 29.6643 13.6319C29.8802 13.3829 30 13.0576 30 12.72C30 12.3825 29.8802 12.0571 29.6643 11.8081C29.4483 11.5591 29.1518 11.4043 28.8332 11.3744H21.6452C21.4682 11.3578 21.2898 11.3802 21.1215 11.4403C20.9531 11.5004 20.7985 11.5968 20.6674 11.7233C20.5363 11.8499 20.4316 12.0039 20.3599 12.1755C20.2883 12.3471 20.2513 12.5325 20.2513 12.72C20.2513 12.9075 20.2883 13.093 20.3599 13.2646C20.4316 13.4362 20.5363 13.5901 20.6674 13.7167C20.7985 13.8433 20.9531 13.9397 21.1215 13.9997C21.2898 14.0598 21.4682 14.0822 21.6452 14.0656Z" fill="white"/>
</g>
<defs>
<clipPath id="clip0_12_364">
<rect width="40" height="40" fill="white"/>
</clipPath>
</defs>
</svg>
