<svg width="40" height="40" viewBox="0 0 40 40" fill="none" xmlns="http://www.w3.org/2000/svg">
<g id="team" clip-path="url(#clip0_12_362)">
<path id="Vector" d="M32.9375 22.6875C32.3125 22.5 31.75 22.3125 31.375 22.125C33.5 20.4375 35 17.625 35 13.8125C35 9.625 31.5625 6.25 27.375 6.25C26.75 2.625 23.625 0 20 0C16.375 0 13.3125 2.6875 12.625 6.25C8.4375 6.25 5 9.625 5 13.6875C5 16.875 6.3125 20.1875 8.625 22.0625L8.5625 22.125C8.1875 22.3125 7.625 22.5 7.0625 22.6875C4.4375 23.5625 0 25.0625 0 30.1875V33.5625C0 34.25 0.5625 34.8125 1.25 34.8125H5.125C5.0625 35.25 5 35.75 5 36.25V38.75C5 39.4375 5.5625 40 6.25 40H33.75C34.4375 40 35 39.4375 35 38.75V36.25C35 35.75 34.9375 35.25 34.875 34.8125H38.75C39.4375 34.8125 40 34.25 40 33.5625V30.1875C40 25.0625 35.5625 23.5625 32.9375 22.6875ZM32.5 13.8125C32.5 16.9375 30.875 20.3125 28.125 21.0625C28.5 19.75 28.75 18.375 28.75 16.875C28.75 13.75 27.125 11 24.625 9.5C25.4375 9.0625 26.375 8.75 27.3125 8.75C30.1875 8.75 32.5 11 32.5 13.8125ZM13.75 16.875C13.75 13.4375 16.5625 10.625 20 10.625C23.4375 10.625 26.25 13.4375 26.25 16.875C26.25 21.5 23.125 26.25 20 26.25C16.875 26.25 13.75 21.5 13.75 16.875ZM20 2.5C22.375 2.5 24.4375 4.25 24.875 6.625C23.8125 7 22.8125 7.5625 21.9375 8.3125C21.3125 8.1875 20.625 8.0625 20 8.0625C19.3125 8.0625 18.6875 8.125 18.0625 8.3125C17.25 7.5625 16.25 6.9375 15.125 6.625C15.5625 4.25 17.625 2.5 20 2.5ZM7.5 13.6875C7.5 10.9375 9.8125 8.75 12.6875 8.75C13.625 8.75 14.5625 9 15.375 9.5C12.875 11 11.25 13.75 11.25 16.875C11.25 18.375 11.5 19.75 11.875 21.0625C9.125 20.25 7.5 16.875 7.5 13.6875ZM2.5 32.3125V30.1875C2.5 27.125 4.8125 26.0625 7.875 25.0625C8.5625 24.8125 9.1875 24.625 9.6875 24.375C10.1875 24.125 10.625 23.8125 11 23.375C11.625 23.5625 12.3125 23.6875 13.0625 23.75C13.75 24.9375 14.5625 26 15.5 26.8125C15.375 26.875 15.25 26.9375 15.125 27C14.6875 27.1875 14 27.4375 13.25 27.6875C11 28.4375 7.6875 29.5 6.0625 32.3125H2.5ZM37.5 32.3125H34C32.375 29.5625 29.25 28.5 27.3125 27.875C26.625 27.6875 25.9375 28 25.75 28.6875C25.5625 29.3125 25.875 30.0625 26.5625 30.25C29.75 31.3125 32.5625 32.5625 32.5625 36.25V37.5H7.5V36.25C7.5 32.5 10.3125 31.25 14 30.0625C14.875 29.8125 15.5625 29.5625 16.125 29.25C16.6875 29 17.1875 28.625 17.5625 28.1875C18.375 28.5625 19.1875 28.75 20 28.75C22.5625 28.75 25.25 26.8125 27 23.75C27.6875 23.75 28.375 23.625 29.0625 23.375C29.4375 23.8125 29.875 24.125 30.375 24.375C30.875 24.625 31.5 24.8125 32.1875 25.0625C35.1875 26.0625 37.5625 27.125 37.5625 30.1875V32.3125H37.5Z" fill="white"/>
</g>
<defs>
<clipPath id="clip0_12_362">
<rect width="40" height="40" fill="white"/>
</clipPath>
</defs>
</svg>
