<svg width="50" height="50" viewBox="0 0 50 50" fill="none" xmlns="http://www.w3.org/2000/svg">
<g id="telegram 1">
<path id="Vector" d="M46.3847 5.05778C45.7915 4.56431 45.0757 4.2409 44.3133 4.12196C43.5509 4.00302 42.7705 4.09301 42.0552 4.38234L4.72004 19.456C3.92161 19.7845 3.24195 20.3481 2.77129 21.0719C2.30063 21.7957 2.06123 22.6455 2.08485 23.5085C2.10847 24.3716 2.394 25.2071 2.90354 25.904C3.41308 26.601 4.12254 27.1266 4.93775 27.4109L12.4898 30.0374L16.6992 43.9575C16.7564 44.1435 16.8394 44.3205 16.9458 44.4833C16.962 44.5083 16.9847 44.5269 17.0019 44.5512C17.1248 44.7228 17.2734 44.8744 17.4424 45.0007C17.4905 45.0374 17.5365 45.0717 17.5879 45.1042C17.7856 45.2355 18.0047 45.3314 18.2352 45.3878L18.2599 45.3899L18.2739 45.3959C18.4125 45.4241 18.5535 45.4384 18.695 45.4386C18.7086 45.4386 18.7207 45.4321 18.7342 45.4318C18.9476 45.4281 19.1592 45.3914 19.3614 45.3229C19.4085 45.3068 19.4488 45.28 19.4944 45.2607C19.6452 45.1982 19.7881 45.1181 19.92 45.022C20.0257 44.933 20.1314 44.844 20.2372 44.755L25.8667 38.5396L34.2631 45.0439C35.0023 45.6194 35.9121 45.9322 36.8489 45.933C37.8305 45.9317 38.7819 45.593 39.5435 44.9737C40.3051 44.3544 40.8306 43.492 41.0319 42.5313L47.8292 9.16343C47.9832 8.41242 47.9302 7.63367 47.6757 6.91049C47.4213 6.1873 46.975 5.5469 46.3847 5.05778ZM19.5211 30.7007C19.2322 30.9884 19.0347 31.355 18.9535 31.7546L18.3086 34.8879L16.6752 29.4857L25.1445 25.0754L19.5211 30.7007ZM36.8164 41.75L26.8941 34.0637C26.479 33.7429 25.9583 33.5903 25.4357 33.6363C24.9131 33.6823 24.427 33.9235 24.0743 34.3119L22.2714 36.3019L22.9085 33.2051L37.6648 18.4488C38.017 18.0971 38.2316 17.6308 38.2697 17.1345C38.3078 16.6382 38.1669 16.1446 37.8725 15.7433C37.5781 15.3419 37.1497 15.0592 36.6648 14.9464C36.18 14.8337 35.6708 14.8983 35.2295 15.1285L14.0518 26.1548L6.29273 23.3154L43.7479 8.33126L36.8164 41.75Z" fill="#67C4FB"/>
</g>
</svg>
